# xmcd
#
# Track frame offsets:
#	150
#	3337
#	22563
#	38988
#	59680
#	77645
#	87854
#	103882
#	114000
#	135180
#	154017
#	173707
#	190081
#	207582
#	229191
# Disc length: 3070 seconds
# Revision: 1
# Processed by: cddbd v1.5.1PL2 Copyright (c) Steve Scherf et al.
#
# Submitted via: libkcddb 0.21
#
DISCID=af0bfc0f
DTITLE=Del McCoury Band - Live at the Strawberry Music Festival [CD1]
DYEAR=2002
DGENRE=Bluegrass
TTITLE0=Introduction
TTITLE1=Desert Wind
TTITLE2=I've Had Enough
TTITLE3=Banjo and Mando Instrumental
TTITLE4=Train Coming Round the Bend
TTITLE5=Just Because
TTITLE6=Walk that Floor
TTITLE7=Foggy Mountain Breakdown
TTITLE8=Nashville Cats
TTITLE9=The Beginning of the End
TTITLE10=Fast Train Instrumental
TTITLE11=Bluegrass Home of Mine
TTITLE12=The Shiners Daughter
TTITLE13=Train Keeps Running
TTITLE14=Fade Out
EXTD=
EXTT0=
EXTT1=
EXTT2=
EXTT3=
EXTT4=
EXTT5=
EXTT6=
EXTT7=
EXTT8=
EXTT9=
EXTT10=
EXTT11=
EXTT12=
EXTT13=
EXTT14=
PLAYORDER=
